<svg width="65" height="46" viewBox="0 0 65 46" fill="none" xmlns="http://www.w3.org/2000/svg">
<path d="M0.0120364 22.4469C-0.371797 11.7892 8.48014 1.94026 18.5963 1.81248C23.7522 1.34871 28.7683 3.46022 32.6702 6.90405C31.0697 8.76003 29.4411 10.5945 27.7016 12.312C24.2665 10.1111 20.1308 8.43386 16.1162 9.92346C9.64095 11.8679 5.71956 19.9306 8.11578 26.6109C10.1002 33.5879 18.1472 37.417 24.4538 34.4861C27.7193 33.253 29.8722 30.0754 30.8171 26.661C27.0745 26.5824 23.3311 26.6315 19.5885 26.5225C19.5792 24.1742 19.5698 21.8348 19.5792 19.4865C25.8205 19.4767 32.0713 19.457 38.3219 19.516C38.7057 25.2697 37.9006 31.4275 34.3537 36.0452C29.497 42.6373 20.5239 44.5718 13.2243 41.9857C5.47723 39.3023 -0.15658 31.0717 0.0120364 22.4469Z" fill="#5A5A5A"/>
<path d="M53.2117 11.2897C55.162 11.2897 57.1111 11.2897 59.0706 11.2897C59.0812 13.3996 59.0998 15.5201 59.1104 17.629C61.0699 17.6502 63.0397 17.6607 64.9997 17.6713C64.9997 19.7812 64.9997 21.8796 64.9997 23.9895C63.0406 24.0001 61.0708 24.0106 59.1104 24.0212C59.0909 26.1417 59.0812 28.2507 59.0706 30.3711C57.1111 30.3606 55.1502 30.3711 53.2008 30.3711C53.1821 28.2507 53.1821 26.1417 53.1618 24.0318C51.2023 24.0097 49.2325 24.0001 47.2725 23.9886C47.2725 21.8787 47.2725 19.7802 47.2725 17.6703C49.2325 17.6598 51.1926 17.6492 53.1618 17.6281C53.1715 15.5201 53.191 13.3996 53.2117 11.2897Z" fill="#5A5A5A"/>
</svg>
