<svg width="40" height="42" viewBox="0 0 40 42" fill="none" xmlns="http://www.w3.org/2000/svg">
<path fill-rule="evenodd" clip-rule="evenodd" d="M12.5 0.302979H27.5C34.4026 0.302979 40 5.95702 40 12.9292V28.0808C40 35.053 34.4026 40.707 27.5 40.707H12.5C5.5975 40.707 0 35.053 0 28.0808V12.9292C0 5.95702 5.5975 0.302979 12.5 0.302979ZM27.5 36.9192C32.325 36.9192 36.25 32.9544 36.25 28.0808V12.9292C36.25 8.0555 32.325 4.09086 27.5 4.09086H12.5C7.675 4.09086 3.75 8.0555 3.75 12.9292V28.0808C3.75 32.9544 7.675 36.9192 12.5 36.9192H27.5Z" fill="#666666"/>
<path fill-rule="evenodd" clip-rule="evenodd" d="M10 20.505C10 14.9268 14.4775 10.4041 20 10.4041C25.5226 10.4041 30 14.9268 30 20.505C30 26.0834 25.5226 30.606 20 30.606C14.4775 30.606 10 26.0834 10 20.505ZM13.75 20.505C13.75 23.9848 16.555 26.8182 20 26.8182C23.445 26.8182 26.25 23.9848 26.25 20.505C26.25 17.0227 23.445 14.1919 20 14.1919C16.555 14.1919 13.75 17.0227 13.75 20.505Z" fill="#5A5A5A"/>
<path d="M30 10.4039C31.1046 10.4039 32 9.49947 32 8.38373C32 7.26801 31.1046 6.36353 30 6.36353C28.8954 6.36353 28 7.26801 28 8.38373C28 9.49947 28.8954 10.4039 30 10.4039Z" fill="#5A5A5A"/>
</svg>
