<svg width="25" height="45" viewBox="0 0 25 45" fill="none" xmlns="http://www.w3.org/2000/svg">
<g clip-path="url(#clip0_29_116)">
<path d="M24.0586 0.00936302L18.0622 0C11.3255 0 6.97195 4.34678 6.97195 11.0746V16.1807H0.94287C0.421886 16.1807 0 16.5917 0 17.0987V24.4969C0 25.0038 0.422368 25.4144 0.94287 25.4144H6.97195V44.0824C6.97195 44.5894 7.39384 45 7.91482 45H15.781C16.302 45 16.7239 44.5889 16.7239 44.0824V25.4144H23.7734C24.2943 25.4144 24.7161 25.0038 24.7161 24.4969L24.7191 17.0987C24.7191 16.8553 24.6195 16.6221 24.443 16.4499C24.2664 16.2776 24.0259 16.1807 23.7757 16.1807H16.7239V11.8522C16.7239 9.77171 17.2333 8.71555 20.0182 8.71555L24.0575 8.71414C24.5782 8.71414 25 8.30311 25 7.79657V0.926937C25 0.420867 24.5786 0.0102993 24.0586 0.00936302Z" fill="#5A5A5A"/>
</g>
<defs>
<clipPath id="clip0_29_116">
<rect width="25" height="45" fill="white"/>
</clipPath>
</defs>
</svg>
